<svg width="139" height="42" viewBox="0 0 139 42" fill="none" xmlns="http://www.w3.org/2000/svg">
<path d="M17.584 41.72C15.472 41.72 13.36 41.456 11.248 40.928C9.18399 40.4 7.31199 39.488 5.63199 38.192C3.99999 36.896 2.65599 35.168 1.59999 33.008C0.543991 30.848 0.0159912 28.136 0.0159912 24.872C0.0159912 23.672 0.111991 22.232 0.303991 20.552C0.495991 18.872 0.855991 17.144 1.38399 15.368C1.95999 13.592 2.72799 11.84 3.68799 10.112C4.69599 8.33599 5.99199 6.75199 7.57599 5.35999C9.15999 3.96799 11.08 2.83999 13.336 1.97599C15.592 1.11199 18.28 0.679993 21.4 0.679993C23.896 0.679993 26.008 0.967992 27.736 1.54399C29.464 2.11999 30.856 2.91199 31.912 3.91999C32.968 4.87999 33.736 6.00799 34.216 7.30399C34.696 8.59999 34.936 9.99199 34.936 11.48C34.936 13.688 34.48 15.56 33.568 17.096C32.704 18.632 31.552 19.928 30.112 20.984C28.72 21.992 27.16 22.784 25.432 23.36C23.704 23.936 22 24.392 20.32 24.728C18.64 25.016 17.08 25.208 15.64 25.304C14.248 25.352 13.168 25.376 12.4 25.376C12.4 26.288 12.52 27.2 12.76 28.112C13.048 28.976 13.456 29.744 13.984 30.416C14.512 31.088 15.208 31.64 16.072 32.072C16.936 32.504 17.992 32.72 19.24 32.72C20.488 32.72 21.448 32.528 22.12 32.144C22.84 31.712 23.416 31.256 23.848 30.776C24.28 30.248 24.64 29.792 24.928 29.408C25.264 28.976 25.696 28.76 26.224 28.76C26.464 28.76 26.872 28.832 27.448 28.976C28.072 29.072 28.696 29.312 29.32 29.696C29.944 30.08 30.496 30.608 30.976 31.28C31.456 31.952 31.696 32.816 31.696 33.872C31.696 35.264 31.264 36.464 30.4 37.472C29.536 38.48 28.408 39.296 27.016 39.92C25.672 40.544 24.16 41 22.48 41.288C20.8 41.576 19.168 41.72 17.584 41.72ZM18.952 10.256C17.896 10.256 16.984 10.568 16.216 11.192C15.496 11.768 14.872 12.512 14.344 13.424C13.864 14.336 13.48 15.344 13.192 16.448C12.952 17.552 12.76 18.608 12.616 19.616C15.592 19.568 17.992 19.064 19.816 18.104C21.688 17.144 22.624 15.776 22.624 14C22.624 13.04 22.312 12.176 21.688 11.408C21.112 10.64 20.2 10.256 18.952 10.256Z" fill="white"/>
<path d="M42.124 25.476C41.86 25.476 41.728 25.344 41.728 25.08L41.836 23.136C41.86 22.824 41.896 22.524 41.944 22.236C42.016 21.924 42.136 21.648 42.304 21.408C42.496 21.168 42.76 20.976 43.096 20.832C43.432 20.688 43.876 20.616 44.428 20.616H54.22C54.364 20.616 54.496 20.664 54.616 20.76C54.736 20.832 54.796 20.952 54.796 21.12L54.652 23.064C54.604 23.784 54.4 24.372 54.04 24.828C53.704 25.26 52.996 25.476 51.916 25.476H42.124Z" fill="white"/>
<path d="M66.5929 12.84C68.6329 12.84 70.1329 13.248 71.0929 14.064C72.0529 14.856 72.5329 15.876 72.5329 17.124C72.5329 18.18 72.1969 18.984 71.5249 19.536C70.8769 20.088 69.9289 20.364 68.6809 20.364C68.3449 20.364 68.1169 20.328 67.9969 20.256C67.8769 20.184 67.8169 20.052 67.8169 19.86C67.8169 19.644 67.7929 19.404 67.7449 19.14C67.7209 18.852 67.6369 18.588 67.4929 18.348C67.3729 18.084 67.1689 17.868 66.8809 17.7C66.6169 17.532 66.2329 17.448 65.7289 17.448C65.0569 17.448 64.5169 17.616 64.1089 17.952C63.7009 18.264 63.4969 18.66 63.4969 19.14C63.4969 19.644 63.7009 20.052 64.1089 20.364C64.5409 20.652 65.0689 20.928 65.6929 21.192C66.3409 21.456 67.0369 21.732 67.7809 22.02C68.5249 22.284 69.2089 22.644 69.8329 23.1C70.4809 23.556 71.0089 24.132 71.4169 24.828C71.8489 25.5 72.0649 26.376 72.0649 27.456C72.0649 29.184 71.4529 30.6 70.2289 31.704C69.0049 32.808 67.1689 33.36 64.7209 33.36C64.0489 33.36 63.2689 33.3 62.3809 33.18C61.5169 33.084 60.6889 32.928 59.8969 32.712C59.1049 32.472 58.4329 32.16 57.8809 31.776C57.3529 31.392 57.0889 30.912 57.0889 30.336C57.0889 30.12 57.1249 29.856 57.1969 29.544C57.2929 29.232 57.4249 28.932 57.5929 28.644C57.7849 28.356 58.0009 28.116 58.2409 27.924C58.5049 27.708 58.8169 27.6 59.1769 27.6C59.4649 27.6 59.7289 27.672 59.9689 27.816C60.2089 27.96 60.4849 28.116 60.7969 28.284C61.1329 28.428 61.5409 28.572 62.0209 28.716C62.5009 28.86 63.1369 28.932 63.9289 28.932C64.5289 28.932 65.0569 28.86 65.5129 28.716C65.9929 28.572 66.2329 28.248 66.2329 27.744C66.2329 27.288 66.0409 26.928 65.6569 26.664C65.2729 26.376 64.7809 26.112 64.1809 25.872C63.6049 25.632 62.9689 25.38 62.2729 25.116C61.6009 24.828 60.9649 24.456 60.3649 24C59.7889 23.544 59.3089 22.968 58.9249 22.272C58.5409 21.552 58.3489 20.628 58.3489 19.5C58.3489 18.276 58.5889 17.244 59.0689 16.404C59.5729 15.54 60.2089 14.844 60.9769 14.316C61.7689 13.788 62.6569 13.416 63.6409 13.2C64.6249 12.96 65.6089 12.84 66.5929 12.84Z" fill="white"/>
<path d="M87.1671 28.536C87.2391 27.744 87.3111 26.916 87.3831 26.052C87.4791 25.188 87.5511 24.36 87.5991 23.568C87.6711 22.776 87.7311 22.068 87.7791 21.444C87.827 20.82 87.8511 20.364 87.8511 20.076C87.8511 19.452 87.6951 18.9 87.3831 18.42C87.0951 17.916 86.5191 17.664 85.6551 17.664C84.5031 17.664 83.5671 18.204 82.8471 19.284C82.1511 20.364 81.7431 21.804 81.6231 23.604C81.5751 24.108 81.5151 24.816 81.4431 25.728C81.3711 26.616 81.299 27.528 81.2271 28.464C81.1551 29.376 81.0831 30.204 81.0111 30.948C80.9631 31.668 80.9391 32.112 80.9391 32.28C80.9391 32.568 80.8791 32.76 80.7591 32.856C80.6631 32.952 80.4591 33 80.1471 33H78.8511C78.107 33 77.4951 32.928 77.0151 32.784C76.5591 32.616 76.1871 32.388 75.8991 32.1C75.6351 31.812 75.4431 31.464 75.3231 31.056C75.2271 30.624 75.1791 30.132 75.1791 29.58C75.1791 29.052 75.2151 28.32 75.2871 27.384C75.3831 26.424 75.5031 25.116 75.6471 23.46C75.7911 21.78 75.9591 19.644 76.1511 17.052C76.3431 14.46 76.5471 11.244 76.7631 7.40399C76.7871 6.87599 76.8471 6.56399 76.9431 6.46799C77.0151 6.39599 77.2071 6.35999 77.5191 6.35999H78.9231C79.6431 6.35999 80.243 6.44399 80.7231 6.61199C81.2031 6.77999 81.5871 7.00799 81.8751 7.29599C82.1631 7.58399 82.3671 7.91999 82.4871 8.30399C82.6071 8.66399 82.6671 9.04799 82.6671 9.45599C82.6671 9.88799 82.6191 10.692 82.5231 11.868C82.4511 13.044 82.3551 14.424 82.2351 16.008C82.9551 14.808 83.7471 13.98 84.6111 13.524C85.4991 13.068 86.6151 12.84 87.9591 12.84C88.9671 12.84 89.8431 12.948 90.5871 13.164C91.3311 13.38 91.9431 13.752 92.4231 14.28C92.9271 14.784 93.2991 15.456 93.5391 16.296C93.7791 17.112 93.8991 18.132 93.8991 19.356C93.8991 19.74 93.8631 20.4 93.7911 21.336C93.7191 22.272 93.6231 23.34 93.5031 24.54C93.4071 25.74 93.2991 27 93.1791 28.32C93.0831 29.616 92.9991 30.804 92.9271 31.884C92.9031 32.148 92.8791 32.352 92.8551 32.496C92.8311 32.64 92.7831 32.748 92.7111 32.82C92.6631 32.892 92.5791 32.94 92.4591 32.964C92.3391 32.988 92.1711 33 91.9551 33H90.8031C90.0351 33 89.4111 32.928 88.9311 32.784C88.451 32.64 88.0791 32.436 87.8151 32.172C87.5511 31.908 87.3591 31.584 87.2391 31.2C87.1431 30.792 87.0951 30.336 87.0951 29.832C87.0951 29.592 87.0951 29.364 87.0951 29.148C87.1191 28.932 87.1431 28.728 87.1671 28.536Z" fill="white"/>
<path d="M105.281 33.36C103.625 33.36 102.245 33.132 101.141 32.676C100.061 32.196 99.1974 31.548 98.5494 30.732C97.9014 29.916 97.4454 28.968 97.1814 27.888C96.9174 26.784 96.7854 25.608 96.7854 24.36C96.7854 22.92 96.9534 21.516 97.2894 20.148C97.6494 18.756 98.2494 17.52 99.0894 16.44C99.9294 15.36 101.033 14.496 102.401 13.848C103.793 13.176 105.521 12.84 107.585 12.84C110.609 12.84 112.769 13.584 114.065 15.072C115.385 16.536 116.045 18.6 116.045 21.264C116.045 22.008 115.985 22.836 115.865 23.748C115.769 24.636 115.565 25.524 115.253 26.412C114.965 27.3 114.557 28.164 114.029 29.004C113.525 29.844 112.877 30.588 112.085 31.236C111.293 31.884 110.333 32.4 109.205 32.784C108.101 33.168 106.793 33.36 105.281 33.36ZM106.973 17.628C106.061 17.628 105.329 17.868 104.777 18.348C104.249 18.804 103.841 19.368 103.553 20.04C103.289 20.688 103.109 21.384 103.013 22.128C102.941 22.848 102.905 23.46 102.905 23.964C102.905 25.548 103.157 26.712 103.661 27.456C104.165 28.2 104.885 28.572 105.821 28.572C106.661 28.572 107.345 28.308 107.873 27.78C108.425 27.252 108.845 26.616 109.133 25.872C109.445 25.128 109.649 24.348 109.745 23.532C109.865 22.716 109.925 22.032 109.925 21.48C109.925 20.28 109.697 19.344 109.241 18.672C108.809 17.976 108.053 17.628 106.973 17.628Z" fill="white"/>
<path d="M131.289 12.84C133.545 12.84 135.237 13.536 136.365 14.928C137.517 16.32 138.093 18.516 138.093 21.516C138.093 23.388 137.877 25.056 137.445 26.52C137.013 27.984 136.413 29.232 135.645 30.264C134.877 31.272 133.977 32.04 132.945 32.568C131.913 33.096 130.797 33.36 129.597 33.36C128.325 33.36 127.329 33.084 126.609 32.532C125.889 31.98 125.325 31.2 124.917 30.192C124.845 31.056 124.785 31.716 124.737 32.172C124.689 32.628 124.653 32.988 124.629 33.252C124.605 33.54 124.581 33.792 124.557 34.008C124.557 34.224 124.533 34.512 124.485 34.872C124.461 35.232 124.425 35.724 124.377 36.348C124.329 36.972 124.257 37.836 124.161 38.94C124.137 39.228 124.077 39.42 123.981 39.516C123.885 39.612 123.681 39.66 123.369 39.66H122.073C121.329 39.66 120.717 39.576 120.237 39.408C119.781 39.264 119.409 39.048 119.121 38.76C118.857 38.472 118.665 38.112 118.545 37.68C118.449 37.272 118.401 36.792 118.401 36.24C118.401 36 118.437 35.352 118.509 34.296C118.581 33.24 118.665 31.98 118.761 30.516C118.881 29.028 119.001 27.432 119.121 25.728C119.265 24.024 119.397 22.404 119.517 20.868C119.637 19.308 119.733 17.928 119.805 16.728C119.901 15.528 119.973 14.7 120.021 14.244C120.045 13.716 120.105 13.404 120.201 13.308C120.273 13.236 120.465 13.2 120.777 13.2H122.181C123.477 13.2 124.413 13.476 124.989 14.028C125.589 14.556 125.889 15.192 125.889 15.936C126.441 14.832 127.149 14.04 128.013 13.56C128.901 13.08 129.993 12.84 131.289 12.84ZM128.661 17.628C127.437 17.628 126.537 18.156 125.961 19.212C125.385 20.268 125.097 21.708 125.097 23.532C125.097 24.156 125.133 24.768 125.205 25.368C125.301 25.968 125.457 26.508 125.673 26.988C125.889 27.468 126.177 27.852 126.537 28.14C126.921 28.428 127.401 28.572 127.977 28.572C129.009 28.572 129.873 28.068 130.569 27.06C131.265 26.052 131.613 24.468 131.613 22.308C131.613 21.708 131.565 21.132 131.469 20.58C131.397 20.004 131.253 19.5 131.037 19.068C130.821 18.636 130.521 18.288 130.137 18.024C129.753 17.76 129.261 17.628 128.661 17.628Z" fill="white"/>
</svg>
