<svg width="104" height="104" viewBox="0 0 104 104" fill="none" xmlns="http://www.w3.org/2000/svg">
<path d="M36.764 21.3281C36.764 12.9191 43.5894 6.09375 51.9984 6.09375C60.4083 6.09375 67.2328 12.9191 67.2328 21.3281V30.6719H73.3265V21.3281C73.3265 9.5675 63.7598 0 51.9984 0C40.2378 0 30.6703 9.5675 30.6703 21.3281V30.6719H36.764V21.3281Z" fill="white"/>
<path fill-rule="evenodd" clip-rule="evenodd" d="M9.3422 104C8.42814 104 7.57517 103.573 7.02689 102.903C6.41752 102.233 6.17313 101.319 6.35642 100.405L18.5439 33.1705C18.7875 31.7073 20.0674 30.6719 21.5297 30.6719H30.6703V42.8594H27.6234C25.9167 42.8594 24.5766 44.1995 24.5766 45.9062C24.5766 47.6122 25.9167 48.9531 27.6234 48.9531H39.8109C41.5177 48.9531 42.8578 47.6122 42.8578 45.9062C42.8578 44.1995 41.5177 42.8594 39.8109 42.8594H36.7641V30.6719H67.2328V42.8594H64.1859C62.4792 42.8594 61.1391 44.1995 61.1391 45.9062C61.1391 47.6122 62.4792 48.9531 64.1859 48.9531H76.3734C78.0802 48.9531 79.4203 47.6122 79.4203 45.9062C79.4203 44.1995 78.0802 42.8594 76.3734 42.8594H73.3266V30.6719H82.4672C83.9295 30.6719 85.2094 31.7073 85.453 33.1705L97.6405 100.405C97.8237 101.319 97.5794 102.233 96.9708 102.903C96.4217 103.573 95.5687 104 94.6547 104H9.3422Z" fill="white"/>
<path d="M52.6 87.5C51.1334 87.5 49.6667 87.3167 48.2 86.95C46.7667 86.5833 45.4667 85.95 44.3 85.05C43.1667 84.15 42.2334 82.95 41.5 81.45C40.7667 79.95 40.4 78.0667 40.4 75.8C40.4 74.9667 40.4667 73.9667 40.6 72.8C40.7334 71.6333 40.9834 70.4333 41.35 69.2C41.75 67.9667 42.2834 66.75 42.95 65.55C43.65 64.3167 44.55 63.2167 45.65 62.25C46.75 61.2833 48.0834 60.5 49.65 59.9C51.2167 59.3 53.0834 59 55.25 59C56.9834 59 58.45 59.2 59.65 59.6C60.85 60 61.8167 60.55 62.55 61.25C63.2834 61.9167 63.8167 62.7 64.15 63.6C64.4834 64.5 64.65 65.4667 64.65 66.5C64.65 68.0333 64.3334 69.3333 63.7 70.4C63.1 71.4667 62.3 72.3667 61.3 73.1C60.3334 73.8 59.25 74.35 58.05 74.75C56.85 75.15 55.6667 75.4667 54.5 75.7C53.3334 75.9 52.25 76.0333 51.25 76.1C50.2834 76.1333 49.5334 76.15 49 76.15C49 76.7833 49.0834 77.4167 49.25 78.05C49.45 78.65 49.7334 79.1833 50.1 79.65C50.4667 80.1167 50.95 80.5 51.55 80.8C52.15 81.1 52.8834 81.25 53.75 81.25C54.6167 81.25 55.2834 81.1167 55.75 80.85C56.25 80.55 56.65 80.2333 56.95 79.9C57.25 79.5333 57.5 79.2167 57.7 78.95C57.9334 78.65 58.2334 78.5 58.6 78.5C58.7667 78.5 59.05 78.55 59.45 78.65C59.8834 78.7167 60.3167 78.8833 60.75 79.15C61.1834 79.4167 61.5667 79.7833 61.9 80.25C62.2334 80.7167 62.4 81.3167 62.4 82.05C62.4 83.0167 62.1 83.85 61.5 84.55C60.9 85.25 60.1167 85.8167 59.15 86.25C58.2167 86.6833 57.1667 87 56 87.2C54.8334 87.4 53.7 87.5 52.6 87.5ZM53.55 65.65C52.8167 65.65 52.1834 65.8667 51.65 66.3C51.15 66.7 50.7167 67.2167 50.35 67.85C50.0167 68.4833 49.75 69.1833 49.55 69.95C49.3834 70.7167 49.25 71.45 49.15 72.15C51.2167 72.1167 52.8834 71.7667 54.15 71.1C55.45 70.4333 56.1 69.4833 56.1 68.25C56.1 67.5833 55.8834 66.9833 55.45 66.45C55.05 65.9167 54.4167 65.65 53.55 65.65Z" fill="#364FD4"/>
</svg>
