<svg width="16" height="16" viewBox="0 0 16 16" fill="none" xmlns="http://www.w3.org/2000/svg">
    <path fill-rule="evenodd" clip-rule="evenodd"
        d="M0 0.5C0 0.223858 0.223858 0 0.5 0H6.6111C6.88724 0 7.1111 0.223857 7.1111 0.499999V8.38887C7.1111 8.66502 6.88724 8.88887 6.6111 8.88887H0.5C0.223858 8.88887 0 8.66502 0 8.38887V0.5ZM16 0.5C16 0.223858 15.7761 0 15.5 0H9.3889C9.11276 0 8.8889 0.223857 8.8889 0.5V4.83332C8.8889 5.10947 9.11276 5.33332 9.3889 5.33332H15.5C15.7761 5.33332 16 5.10947 16 4.83332V0.5ZM4.83332 7.11115C5.10946 7.11115 5.33332 6.8873 5.33332 6.61115V2.27783C5.33332 2.00169 5.10946 1.77783 4.83332 1.77783H2.27777C2.00162 1.77783 1.77777 2.00169 1.77777 2.27783V6.61115C1.77777 6.8873 2.00162 7.11115 2.27777 7.11115H4.83332ZM13.7222 3.5556C13.9984 3.5556 14.2222 3.33175 14.2222 3.0556V2.27783C14.2222 2.00169 13.9984 1.77783 13.7222 1.77783H11.1667C10.8905 1.77783 10.6667 2.00169 10.6667 2.27783V3.0556C10.6667 3.33175 10.8905 3.5556 11.1667 3.5556H13.7222ZM13.7222 8.8889C13.9984 8.8889 14.2222 9.11276 14.2222 9.3889V13.7222C14.2222 13.9984 13.9984 14.2222 13.7222 14.2222H11.1667C10.8905 14.2222 10.6667 13.9984 10.6667 13.7222V9.3889C10.6667 9.11276 10.8905 8.8889 11.1667 8.8889H13.7222ZM4.83332 14.2222C5.10946 14.2222 5.33332 13.9984 5.33332 13.7222V12.9444C5.33332 12.6683 5.10946 12.4444 4.83332 12.4444H2.27777C2.00162 12.4444 1.77777 12.6683 1.77777 12.9444V13.7222C1.77777 13.9984 2.00162 14.2222 2.27777 14.2222H4.83332ZM16 7.61107C16 7.33493 15.7761 7.11107 15.5 7.11107H9.3889C9.11276 7.11107 8.8889 7.33493 8.8889 7.61107V15.4999C8.8889 15.7761 9.11276 15.9999 9.3889 15.9999H15.5C15.7761 15.9999 16 15.7761 16 15.4999V7.61107ZM0 11.1666C0 10.8905 0.223858 10.6666 0.5 10.6666H6.6111C6.88724 10.6666 7.1111 10.8905 7.1111 11.1666V15.4999C7.1111 15.7761 6.88724 15.9999 6.6111 15.9999H0.5C0.223858 15.9999 0 15.7761 0 15.4999V11.1666Z"
        fill="#364FD4" />
</svg>
