<svg width="18" height="20" viewBox="0 0 18 20" fill="none" xmlns="http://www.w3.org/2000/svg">
<path fill-rule="evenodd" clip-rule="evenodd" d="M16.739 12.993L15.104 11.3038V7.14142C15.149 3.94529 12.8927 1.20477 9.81754 0.72051C8.07151 0.484257 6.31102 1.032 4.98587 2.22379C3.66072 3.41558 2.89927 5.13598 2.89605 6.94544V11.3038L1.26105 12.993C0.841188 13.4316 0.717701 14.0859 0.947567 14.6539C1.17743 15.222 1.71598 15.5934 2.31472 15.5969H5.36671V15.9142C5.45505 17.8868 7.07984 19.4143 9.00004 19.33C10.9202 19.4143 12.545 17.8868 12.6334 15.9142V15.5969H15.6854C16.2841 15.5934 16.8226 15.222 17.0525 14.6539C17.2824 14.0859 17.1589 13.4316 16.739 12.993ZM10.8167 15.9142C10.7121 16.8468 9.91147 17.5295 9.00004 17.4634C8.08862 17.5295 7.28803 16.8468 7.18338 15.9142V15.5969H10.8167V15.9142ZM3.10496 13.7303L4.17679 12.6291C4.52017 12.2783 4.71309 11.8013 4.71271 11.3038V6.94544C4.71371 5.67169 5.25015 4.46048 6.1842 3.62299C7.106 2.76485 8.34793 2.36566 9.58136 2.53106C11.7533 2.8934 13.3339 4.8438 13.2874 7.10409V11.3038C13.2846 11.8 13.4741 12.2768 13.8142 12.6291L14.8951 13.7303H3.10496Z" fill="#B9C1CC"/>
</svg>
