<svg width="18" height="18" viewBox="0 0 18 18" fill="none" xmlns="http://www.w3.org/2000/svg">
<path fill-rule="evenodd" clip-rule="evenodd" d="M13.4444 4.55553C13.4444 2.10093 11.4546 0.111084 8.99997 0.111084C6.54537 0.111084 4.55552 2.10093 4.55552 4.55553C4.55552 7.01013 6.54537 8.99997 8.99997 8.99997C11.4546 8.99997 13.4444 7.01013 13.4444 4.55553ZM6.77777 4.55553C6.77777 3.32823 7.77269 2.3333 8.99999 2.3333C10.2273 2.3333 11.2222 3.32823 11.2222 4.55553C11.2222 5.78282 10.2273 6.77775 8.99999 6.77775C7.77269 6.77775 6.77777 5.78282 6.77777 4.55553ZM8.99997 10.1111C11.9666 10.1111 17.8889 11.5889 17.8889 14.5555V17.8889H0.111084V14.5555C0.111084 11.5889 6.03331 10.1111 8.99997 10.1111ZM2.22219 14.5555C2.22219 13.8444 5.69997 12.2222 8.99997 12.2222C12.3 12.2222 15.7777 13.8444 15.7777 14.5555V15.7778H2.22219V14.5555Z" fill="#B9C1CC"/>
</svg>
