<svg width="20" height="20" viewBox="0 0 20 20" fill="none" xmlns="http://www.w3.org/2000/svg">
<path fill-rule="evenodd" clip-rule="evenodd" d="M18 5.81246H15.3333C15.3333 2.95829 13.0416 0.666626 10.1875 0.666626H9.85413C6.99996 0.666626 4.66663 2.95829 4.66663 5.81246H1.99996L0.666626 19.3333H19.3333L18 5.81246ZM9.85412 1.99996H10.1666H10.1875C12.3 1.99996 14 3.69996 14 5.81246H5.99996C5.99996 3.69996 7.74162 1.99996 9.85412 1.99996ZM2.35916 17.8059L3.50938 7.33329H4.66663V8.84579C4.26663 9.07496 3.99996 9.50829 3.99996 9.99996C3.99996 10.7375 4.59579 11.3333 5.33329 11.3333C6.07079 11.3333 6.66663 10.7375 6.66663 9.99996C6.66663 9.50829 6.39996 9.07496 5.99996 8.84579V7.33329H14V8.84579C13.6 9.07496 13.3333 9.50829 13.3333 9.99996C13.3333 10.7375 13.9291 11.3333 14.6666 11.3333C15.4041 11.3333 16 10.7375 16 9.99996C16 9.50829 15.7333 9.07496 15.3333 8.84579V7.33329H16.4646L17.5793 17.7135L2.35916 17.8059Z" fill="#B9C1CC"/>
</svg>
